<svg xmlns="http://www.w3.org/2000/svg" viewBox="0 0 357.684 350.383"><path fill="#FFF" d="M91.562 188.97a4.267 4.267 0 0 0-5.3 2.885l-7.243 24.555a4.267 4.267 0 0 0 2.885 5.3l8.185 2.414-1.811 6.139a2.133 2.133 0 0 0 1.442 2.649l1.023.302a2.17 2.17 0 0 0 1.608-.171l9.811-5.357 12.481 3.682a4.266 4.266 0 0 0 5.299-2.885l7.243-24.555a4.267 4.267 0 0 0-2.885-5.3l-32.738-9.658m-1.208 4.093l32.739 9.657-7.243 24.555-14.159-4.177-8.161 4.442 1.859-6.302-12.277-3.622 7.242-24.553m15.853 8.012c-1.821-.538-3.382-.599-4.705-.187-1.343.405-2.277 1.463-2.591 2.903l4.032 1.189c.168-.571.499-.941.911-1.13.495-.167.987-.179 1.54-.016.635.188 1.138.514 1.398.991.266.456.318.962.137 1.575a2.807 2.807 0 0 1-.898 1.382 4.256 4.256 0 0 1-1.636.719c-1.257.342-2.121.708-2.695 1.072-.534.377-.944 1.013-1.246 2.035l4.092 1.207c.168-.571.404-.992.698-1.306.287-.293.725-.499 1.347-.649 1.067-.15 2.015-.496 2.825-1.057.817-.582 1.36-1.289 1.626-2.189.422-1.434.207-2.741-.645-3.926-.859-1.164-2.267-2.045-4.19-2.613m-6.358 12.581l-1.208 4.093 4.092 1.208 1.208-4.094-4.092-1.207zm120.211-26.423c-6.249 2.75-9.077 10.041-6.333 16.283l29.859 67.833c2.745 6.242 10.036 9.075 16.277 6.325l22.611-9.945 7.467 16.954a6.164 6.164 0 0 0 8.142 3.16l2.822-1.235c1.418-.622 2.582-1.811 3.233-3.384l11.688-30.181 34.48-15.174c6.242-2.75 9.076-10.035 6.327-16.284l-29.849-67.826c-2.769-6.271-10.072-9.063-16.284-6.332l-90.44 39.806m4.974 11.309l90.437-39.806 29.86 67.831-39.112 17.213-9.746 25.072-7.672-17.406-33.912 14.927-29.855-67.831m50.023-11.894c-5.029 2.213-8.595 4.993-10.747 8.371-2.214 3.407-2.305 7.491-.308 11.266l11.133-4.902c-.693-1.581-.651-3.011-.09-4.199.783-1.296 1.845-2.237 3.371-2.906 1.754-.771 3.479-.995 4.945-.429 1.441.519 2.502 1.532 3.251 3.233.693 1.586.862 3.197.591 4.729a12.306 12.306 0 0 1-2.279 4.65c-2.136 3.1-3.365 5.53-3.957 7.411-.477 1.828-.193 3.999 1.05 6.821l11.308-4.976c-.7-1.58-.965-2.949-.898-4.185.085-1.188.67-2.462 1.768-3.957 2.075-2.328 3.527-4.861 4.27-7.611.718-2.816.604-5.397-.495-7.889-1.742-3.956-4.661-6.446-8.762-7.473-4.073-.97-8.832-.294-14.151 2.046m9.45 39.703l4.977 11.303 11.301-4.976-4.975-11.309-11.303 4.982zM233.4.111a6.65 6.65 0 0 0-7.745 5.334l-7.235 39.239a6.65 6.65 0 0 0 5.333 7.745l13.079 2.412-1.809 9.81a3.323 3.323 0 0 0 2.667 3.873l1.636.302c.818.151 1.695-.024 2.463-.526l14.338-9.9 19.945 3.678a6.649 6.649 0 0 0 7.744-5.333l7.236-39.238a6.65 6.65 0 0 0-5.333-7.746L233.4.111m-1.206 6.54l52.319 9.648-7.235 39.238-22.628-4.172-11.929 8.214 1.857-10.071-19.621-3.618 7.237-39.239m25.874 9.843c-2.907-.536-5.339-.376-7.32.476-2.016.847-3.291 2.639-3.546 4.923l6.443 1.188c.168-.914.621-1.54 1.228-1.899.74-.34 1.502-.437 2.382-.274 1.017.187 1.849.612 2.331 1.308.484.664.649 1.44.47 2.421a4.35 4.35 0 0 1-1.171 2.287 6.571 6.571 0 0 1-2.42 1.38c-1.892.734-3.171 1.442-4.001 2.101-.768.671-1.298 1.722-1.6 3.358l6.538 1.206c.168-.914.465-1.606.87-2.138.396-.501 1.042-.891 1.983-1.226 1.63-.406 3.041-1.096 4.207-2.096 1.171-1.036 1.897-2.22 2.163-3.659.422-2.29-.125-4.283-1.637-5.981-1.517-1.669-3.844-2.808-6.92-3.375m-7.807 20.537l-1.205 6.541 6.537 1.206 1.207-6.54-6.539-1.207zm-98.793 45.804a4.701 4.701 0 0 0-3.624 5.571l5.842 27.583a4.699 4.699 0 0 0 5.571 3.624l9.194-1.947 1.46 6.896a2.348 2.348 0 0 0 2.784 1.812l1.149-.244a2.392 2.392 0 0 0 1.469-1.008l6.699-10.328 14.021-2.969a4.7 4.7 0 0 0 3.623-5.571l-5.842-27.583a4.699 4.699 0 0 0-5.569-3.624l-36.777 7.788m.973 4.598l36.777-7.788 5.841 27.583-15.905 3.368-5.581 8.58-1.5-7.08-13.79 2.921-5.842-27.584m19.554-.539c-2.044.433-3.59 1.192-4.655 2.283-1.089 1.096-1.438 2.61-.99 4.171l4.529-.959c-.136-.642-.009-1.173.291-1.572.393-.421.863-.689 1.482-.82.714-.151 1.373-.099 1.875.227.496.303.812.766.958 1.455a3.096 3.096 0 0 1-.147 1.809 4.668 4.668 0 0 1-1.209 1.553c-1.038.99-1.684 1.797-2.05 2.451-.32.645-.384 1.475-.141 2.624l4.597-.974c-.136-.642-.128-1.173-.008-1.631.125-.435.441-.862.966-1.335.955-.704 1.691-1.536 2.184-2.502.486-.992.642-1.961.428-2.973-.341-1.609-1.234-2.764-2.681-3.467-1.441-.68-3.267-.798-5.429-.34m.43 15.52l.974 4.597 4.598-.974-.974-4.597-4.598.974zM3.378 99.504a5.666 5.666 0 0 0-2.893 7.473l13.741 31.1a5.667 5.667 0 0 0 7.473 2.893l10.367-4.58 3.435 7.775a2.832 2.832 0 0 0 3.737 1.447l1.296-.573c.648-.286 1.181-.831 1.482-1.554l5.341-13.852 15.809-6.985a5.667 5.667 0 0 0 2.893-7.473l-13.741-31.1a5.667 5.667 0 0 0-7.473-2.893L3.378 99.504m2.29 5.183l41.466-18.321 13.741 31.1-17.935 7.924-4.455 11.51-3.527-7.983-15.55 6.871-13.74-31.101m22.942-5.489c-2.306 1.019-3.94 2.297-4.927 3.849-1.012 1.564-1.049 3.438-.134 5.168l5.108-2.257c-.32-.724-.302-1.381-.047-1.927.357-.594.847-1.027 1.545-1.336.805-.356 1.595-.457 2.268-.198.661.234 1.149.703 1.492 1.48.321.727.399 1.466.276 2.171a5.646 5.646 0 0 1-1.042 2.133c-.979 1.425-1.541 2.538-1.81 3.401-.218.841-.088 1.836.484 3.131l5.184-2.29c-.32-.724-.443-1.353-.414-1.922.039-.544.307-1.128.808-1.815.953-1.068 1.615-2.232 1.956-3.496.328-1.291.272-2.473-.232-3.614-.802-1.815-2.144-2.955-4.024-3.426-1.871-.444-4.054-.129-6.491.948m4.36 18.207l2.29 5.183 5.184-2.29-2.29-5.183-5.184 2.29zm121.396 188.436a4.332 4.332 0 0 0-4.871 3.714l-3.468 25.761a4.334 4.334 0 0 0 3.717 4.872l8.587 1.157-.868 6.438a2.169 2.169 0 0 0 1.857 2.438l1.075.144a2.2 2.2 0 0 0 1.586-.421l9.016-6.894 13.094 1.762a4.334 4.334 0 0 0 4.872-3.715l3.467-25.763a4.333 4.333 0 0 0-3.714-4.871l-34.35-4.622m-.577 4.292l34.349 4.624-3.469 25.761-14.854-1.999-7.503 5.722.891-6.612-12.88-1.734 3.466-25.762m17.147 5.586c-1.91-.256-3.485-.076-4.749.542-1.283.615-2.056 1.821-2.15 3.314l4.23.571c.08-.601.355-1.021.738-1.275a2.496 2.496 0 0 1 1.542-.254c.666.089 1.223.341 1.557.778.339.417.47.916.383 1.56a2.839 2.839 0 0 1-.688 1.524c-.43.424-.933.749-1.531.976-1.208.537-2.019 1.038-2.538 1.493-.479.461-.792 1.161-.936 2.236l4.292.577c.083-.601.252-1.06.499-1.419.241-.339.649-.611 1.253-.861 1.047-.315 1.943-.808 2.669-1.495.73-.711 1.166-1.504 1.293-2.45.203-1.504-.216-2.783-1.255-3.841-1.04-1.037-2.589-1.703-4.609-1.976m-4.432 13.61l-.577 4.294 4.294.578.578-4.292-4.295-.58z"/></svg>